<svg xmlns="http://www.w3.org/2000/svg" viewBox="0 0 200 200" width="200" height="200">
  <g stroke-linecap="round" stroke-linejoin="round">
    <path d="M 100.00,86.00 L 102.49,93.99 L 109.90,90.10 L 106.01,97.51 L 114.00,100.00 L 106.01,102.49 L 109.90,109.90 L 102.49,106.01 L 100.00,114.00 L 97.51,106.01 L 90.10,109.90 L 93.99,102.49 L 86.00,100.00 L 93.99,97.51 L 90.10,90.10 L 97.51,93.99 Z" fill="none" stroke="#e8c39e" stroke-width="1.2" opacity="0.65" />
    <path d="M 100.00,62.00 L 106.70,83.83 L 126.87,73.13 L 116.17,93.30 L 138.00,100.00 L 116.17,106.70 L 126.87,126.87 L 106.70,116.17 L 100.00,138.00 L 93.30,116.17 L 73.13,126.87 L 83.83,106.70 L 62.00,100.00 L 83.83,93.30 L 73.13,73.13 L 93.30,83.83 Z" fill="none" stroke="#e8c39e" stroke-width="1.2" />
    <path d="M 100.00,62.00 L 85.17,54.35 L 100.00,40.00 L 114.83,54.35 Z" fill="none" stroke="#e8c39e" stroke-width="1.2" />
    <path d="M 126.87,73.13 L 121.79,57.23 L 142.43,57.57 L 142.77,78.21 Z" fill="none" stroke="#e8c39e" stroke-width="1.2" />
    <path d="M 138.00,100.00 L 145.65,85.17 L 160.00,100.00 L 145.65,114.83 Z" fill="none" stroke="#e8c39e" stroke-width="1.2" />
    <path d="M 126.87,126.87 L 142.77,121.79 L 142.43,142.43 L 121.79,142.77 Z" fill="none" stroke="#e8c39e" stroke-width="1.2" />
    <path d="M 100.00,138.00 L 114.83,145.65 L 100.00,160.00 L 85.17,145.65 Z" fill="none" stroke="#e8c39e" stroke-width="1.2" />
    <path d="M 73.13,126.87 L 78.21,142.77 L 57.57,142.43 L 57.23,121.79 Z" fill="none" stroke="#e8c39e" stroke-width="1.2" />
    <path d="M 62.00,100.00 L 54.35,114.83 L 40.00,100.00 L 54.35,85.17 Z" fill="none" stroke="#e8c39e" stroke-width="1.2" />
    <path d="M 73.13,73.13 L 57.23,78.21 L 57.57,57.57 L 78.21,57.23 Z" fill="none" stroke="#e8c39e" stroke-width="1.2" />
    <path d="M 100.00,24.00 L 113.27,33.31 L 129.08,29.79 L 137.78,43.46 L 153.74,46.26 L 156.54,62.22 L 170.21,70.92 L 166.69,86.73 L 176.00,100.00 L 166.69,113.27 L 170.21,129.08 L 156.54,137.78 L 153.74,153.74 L 137.78,156.54 L 129.08,170.21 L 113.27,166.69 L 100.00,176.00 L 86.73,166.69 L 70.92,170.21 L 62.22,156.54 L 46.26,153.74 L 43.46,137.78 L 29.79,129.08 L 33.31,113.27 L 24.00,100.00 L 33.31,86.73 L 29.79,70.92 L 43.46,62.22 L 46.26,46.26 L 62.22,43.46 L 70.92,29.79 L 86.73,33.31 Z" fill="none" stroke="#e8c39e" stroke-width="0.9" opacity="0.5" />
    <path d="M 0.00,-14.00 L 2.49,-6.01 L 9.90,-9.90 L 6.01,-2.49 L 14.00,0.00 L 6.01,2.49 L 9.90,9.90 L 2.49,6.01 L 0.00,14.00 L -2.49,6.01 L -9.90,9.90 L -6.01,2.49 L -14.00,0.00 L -6.01,-2.49 L -9.90,-9.90 L -2.49,-6.01 Z" fill="none" stroke="#e8c39e" stroke-width="1.2" opacity="0.65" />
    <path d="M 0.00,-38.00 L 6.70,-16.17 L 26.87,-26.87 L 16.17,-6.70 L 38.00,0.00 L 16.17,6.70 L 26.87,26.87 L 6.70,16.17 L 0.00,38.00 L -6.70,16.17 L -26.87,26.87 L -16.17,6.70 L -38.00,0.00 L -16.17,-6.70 L -26.87,-26.87 L -6.70,-16.17 Z" fill="none" stroke="#e8c39e" stroke-width="1.2" />
    <path d="M 0.00,-38.00 L -14.83,-45.65 L 0.00,-60.00 L 14.83,-45.65 Z" fill="none" stroke="#e8c39e" stroke-width="1.2" />
    <path d="M 26.87,-26.87 L 21.79,-42.77 L 42.43,-42.43 L 42.77,-21.79 Z" fill="none" stroke="#e8c39e" stroke-width="1.2" />
    <path d="M 38.00,0.00 L 45.65,-14.83 L 60.00,0.00 L 45.65,14.83 Z" fill="none" stroke="#e8c39e" stroke-width="1.2" />
    <path d="M 26.87,26.87 L 42.77,21.79 L 42.43,42.43 L 21.79,42.77 Z" fill="none" stroke="#e8c39e" stroke-width="1.2" />
    <path d="M 0.00,38.00 L 14.83,45.65 L 0.00,60.00 L -14.83,45.65 Z" fill="none" stroke="#e8c39e" stroke-width="1.2" />
    <path d="M -26.87,26.87 L -21.79,42.77 L -42.43,42.43 L -42.77,21.79 Z" fill="none" stroke="#e8c39e" stroke-width="1.2" />
    <path d="M -38.00,0.00 L -45.65,14.83 L -60.00,0.00 L -45.65,-14.83 Z" fill="none" stroke="#e8c39e" stroke-width="1.2" />
    <path d="M -26.87,-26.87 L -42.77,-21.79 L -42.43,-42.43 L -21.79,-42.77 Z" fill="none" stroke="#e8c39e" stroke-width="1.2" />
    <path d="M 0.00,-76.00 L 13.27,-66.69 L 29.08,-70.21 L 37.78,-56.54 L 53.74,-53.74 L 56.54,-37.78 L 70.21,-29.08 L 66.69,-13.27 L 76.00,0.00 L 66.69,13.27 L 70.21,29.08 L 56.54,37.78 L 53.74,53.74 L 37.78,56.54 L 29.08,70.21 L 13.27,66.69 L 0.00,76.00 L -13.27,66.69 L -29.08,70.21 L -37.78,56.54 L -53.74,53.74 L -56.54,37.78 L -70.21,29.08 L -66.69,13.27 L -76.00,0.00 L -66.69,-13.27 L -70.21,-29.08 L -56.54,-37.78 L -53.74,-53.74 L -37.78,-56.54 L -29.08,-70.21 L -13.27,-66.69 Z" fill="none" stroke="#e8c39e" stroke-width="0.9" opacity="0.5" />
    <path d="M 200.00,-14.00 L 202.49,-6.01 L 209.90,-9.90 L 206.01,-2.49 L 214.00,0.00 L 206.01,2.49 L 209.90,9.90 L 202.49,6.01 L 200.00,14.00 L 197.51,6.01 L 190.10,9.90 L 193.99,2.49 L 186.00,0.00 L 193.99,-2.49 L 190.10,-9.90 L 197.51,-6.01 Z" fill="none" stroke="#e8c39e" stroke-width="1.2" opacity="0.65" />
    <path d="M 200.00,-38.00 L 206.70,-16.17 L 226.87,-26.87 L 216.17,-6.70 L 238.00,0.00 L 216.17,6.70 L 226.87,26.87 L 206.70,16.17 L 200.00,38.00 L 193.30,16.17 L 173.13,26.87 L 183.83,6.70 L 162.00,0.00 L 183.83,-6.70 L 173.13,-26.87 L 193.30,-16.17 Z" fill="none" stroke="#e8c39e" stroke-width="1.2" />
    <path d="M 200.00,-38.00 L 185.17,-45.65 L 200.00,-60.00 L 214.83,-45.65 Z" fill="none" stroke="#e8c39e" stroke-width="1.2" />
    <path d="M 226.87,-26.87 L 221.79,-42.77 L 242.43,-42.43 L 242.77,-21.79 Z" fill="none" stroke="#e8c39e" stroke-width="1.2" />
    <path d="M 238.00,0.00 L 245.65,-14.83 L 260.00,0.00 L 245.65,14.83 Z" fill="none" stroke="#e8c39e" stroke-width="1.2" />
    <path d="M 226.87,26.87 L 242.77,21.79 L 242.43,42.43 L 221.79,42.77 Z" fill="none" stroke="#e8c39e" stroke-width="1.2" />
    <path d="M 200.00,38.00 L 214.83,45.65 L 200.00,60.00 L 185.17,45.65 Z" fill="none" stroke="#e8c39e" stroke-width="1.2" />
    <path d="M 173.13,26.87 L 178.21,42.77 L 157.57,42.43 L 157.23,21.79 Z" fill="none" stroke="#e8c39e" stroke-width="1.2" />
    <path d="M 162.00,0.00 L 154.35,14.83 L 140.00,0.00 L 154.35,-14.83 Z" fill="none" stroke="#e8c39e" stroke-width="1.2" />
    <path d="M 173.13,-26.87 L 157.23,-21.79 L 157.57,-42.43 L 178.21,-42.77 Z" fill="none" stroke="#e8c39e" stroke-width="1.2" />
    <path d="M 200.00,-76.00 L 213.27,-66.69 L 229.08,-70.21 L 237.78,-56.54 L 253.74,-53.74 L 256.54,-37.78 L 270.21,-29.08 L 266.69,-13.27 L 276.00,0.00 L 266.69,13.27 L 270.21,29.08 L 256.54,37.78 L 253.74,53.74 L 237.78,56.54 L 229.08,70.21 L 213.27,66.69 L 200.00,76.00 L 186.73,66.69 L 170.92,70.21 L 162.22,56.54 L 146.26,53.74 L 143.46,37.78 L 129.79,29.08 L 133.31,13.27 L 124.00,0.00 L 133.31,-13.27 L 129.79,-29.08 L 143.46,-37.78 L 146.26,-53.74 L 162.22,-56.54 L 170.92,-70.21 L 186.73,-66.69 Z" fill="none" stroke="#e8c39e" stroke-width="0.9" opacity="0.5" />
    <path d="M 200.00,186.00 L 202.49,193.99 L 209.90,190.10 L 206.01,197.51 L 214.00,200.00 L 206.01,202.49 L 209.90,209.90 L 202.49,206.01 L 200.00,214.00 L 197.51,206.01 L 190.10,209.90 L 193.99,202.49 L 186.00,200.00 L 193.99,197.51 L 190.10,190.10 L 197.51,193.99 Z" fill="none" stroke="#e8c39e" stroke-width="1.2" opacity="0.65" />
    <path d="M 200.00,162.00 L 206.70,183.83 L 226.87,173.13 L 216.17,193.30 L 238.00,200.00 L 216.17,206.70 L 226.87,226.87 L 206.70,216.17 L 200.00,238.00 L 193.30,216.17 L 173.13,226.87 L 183.83,206.70 L 162.00,200.00 L 183.83,193.30 L 173.13,173.13 L 193.30,183.83 Z" fill="none" stroke="#e8c39e" stroke-width="1.2" />
    <path d="M 200.00,162.00 L 185.17,154.35 L 200.00,140.00 L 214.83,154.35 Z" fill="none" stroke="#e8c39e" stroke-width="1.2" />
    <path d="M 226.87,173.13 L 221.79,157.23 L 242.43,157.57 L 242.77,178.21 Z" fill="none" stroke="#e8c39e" stroke-width="1.2" />
    <path d="M 238.00,200.00 L 245.65,185.17 L 260.00,200.00 L 245.65,214.83 Z" fill="none" stroke="#e8c39e" stroke-width="1.2" />
    <path d="M 226.87,226.87 L 242.77,221.79 L 242.43,242.43 L 221.79,242.77 Z" fill="none" stroke="#e8c39e" stroke-width="1.2" />
    <path d="M 200.00,238.00 L 214.83,245.65 L 200.00,260.00 L 185.17,245.65 Z" fill="none" stroke="#e8c39e" stroke-width="1.2" />
    <path d="M 173.13,226.87 L 178.21,242.77 L 157.57,242.43 L 157.23,221.79 Z" fill="none" stroke="#e8c39e" stroke-width="1.2" />
    <path d="M 162.00,200.00 L 154.35,214.83 L 140.00,200.00 L 154.35,185.17 Z" fill="none" stroke="#e8c39e" stroke-width="1.2" />
    <path d="M 173.13,173.13 L 157.23,178.21 L 157.57,157.57 L 178.21,157.23 Z" fill="none" stroke="#e8c39e" stroke-width="1.2" />
    <path d="M 200.00,124.00 L 213.27,133.31 L 229.08,129.79 L 237.78,143.46 L 253.74,146.26 L 256.54,162.22 L 270.21,170.92 L 266.69,186.73 L 276.00,200.00 L 266.69,213.27 L 270.21,229.08 L 256.54,237.78 L 253.74,253.74 L 237.78,256.54 L 229.08,270.21 L 213.27,266.69 L 200.00,276.00 L 186.73,266.69 L 170.92,270.21 L 162.22,256.54 L 146.26,253.74 L 143.46,237.78 L 129.79,229.08 L 133.31,213.27 L 124.00,200.00 L 133.31,186.73 L 129.79,170.92 L 143.46,162.22 L 146.26,146.26 L 162.22,143.46 L 170.92,129.79 L 186.73,133.31 Z" fill="none" stroke="#e8c39e" stroke-width="0.9" opacity="0.5" />
    <path d="M 0.00,186.00 L 2.49,193.99 L 9.90,190.10 L 6.01,197.51 L 14.00,200.00 L 6.01,202.49 L 9.90,209.90 L 2.49,206.01 L 0.00,214.00 L -2.49,206.01 L -9.90,209.90 L -6.01,202.49 L -14.00,200.00 L -6.01,197.51 L -9.90,190.10 L -2.49,193.99 Z" fill="none" stroke="#e8c39e" stroke-width="1.2" opacity="0.65" />
    <path d="M 0.00,162.00 L 6.70,183.83 L 26.87,173.13 L 16.17,193.30 L 38.00,200.00 L 16.17,206.70 L 26.87,226.87 L 6.70,216.17 L 0.00,238.00 L -6.70,216.17 L -26.87,226.87 L -16.17,206.70 L -38.00,200.00 L -16.17,193.30 L -26.87,173.13 L -6.70,183.83 Z" fill="none" stroke="#e8c39e" stroke-width="1.2" />
    <path d="M 0.00,162.00 L -14.83,154.35 L 0.00,140.00 L 14.83,154.35 Z" fill="none" stroke="#e8c39e" stroke-width="1.2" />
    <path d="M 26.87,173.13 L 21.79,157.23 L 42.43,157.57 L 42.77,178.21 Z" fill="none" stroke="#e8c39e" stroke-width="1.2" />
    <path d="M 38.00,200.00 L 45.65,185.17 L 60.00,200.00 L 45.65,214.83 Z" fill="none" stroke="#e8c39e" stroke-width="1.2" />
    <path d="M 26.87,226.87 L 42.77,221.79 L 42.43,242.43 L 21.79,242.77 Z" fill="none" stroke="#e8c39e" stroke-width="1.2" />
    <path d="M 0.00,238.00 L 14.83,245.65 L 0.00,260.00 L -14.83,245.65 Z" fill="none" stroke="#e8c39e" stroke-width="1.2" />
    <path d="M -26.87,226.87 L -21.79,242.77 L -42.43,242.43 L -42.77,221.79 Z" fill="none" stroke="#e8c39e" stroke-width="1.2" />
    <path d="M -38.00,200.00 L -45.65,214.83 L -60.00,200.00 L -45.65,185.17 Z" fill="none" stroke="#e8c39e" stroke-width="1.2" />
    <path d="M -26.87,173.13 L -42.77,178.21 L -42.43,157.57 L -21.79,157.23 Z" fill="none" stroke="#e8c39e" stroke-width="1.2" />
    <path d="M 0.00,124.00 L 13.27,133.31 L 29.08,129.79 L 37.78,143.46 L 53.74,146.26 L 56.54,162.22 L 70.21,170.92 L 66.69,186.73 L 76.00,200.00 L 66.69,213.27 L 70.21,229.08 L 56.54,237.78 L 53.74,253.74 L 37.78,256.54 L 29.08,270.21 L 13.27,266.69 L 0.00,276.00 L -13.27,266.69 L -29.08,270.21 L -37.78,256.54 L -53.74,253.74 L -56.54,237.78 L -70.21,229.08 L -66.69,213.27 L -76.00,200.00 L -66.69,186.73 L -70.21,170.92 L -56.54,162.22 L -53.74,146.26 L -37.78,143.46 L -29.08,129.79 L -13.27,133.31 Z" fill="none" stroke="#e8c39e" stroke-width="0.9" opacity="0.5" />
    <path d="M 100.00,-22.00 L 103.83,-9.24 L 115.56,-15.56 L 109.24,-3.83 L 122.00,0.00 L 109.24,3.83 L 115.56,15.56 L 103.83,9.24 L 100.00,22.00 L 96.17,9.24 L 84.44,15.56 L 90.76,3.83 L 78.00,0.00 L 90.76,-3.83 L 84.44,-15.56 L 96.17,-9.24 Z" fill="none" stroke="#e8c39e" stroke-width="1.2" opacity="0.75" />
    <path d="M 200.00,78.00 L 203.83,90.76 L 215.56,84.44 L 209.24,96.17 L 222.00,100.00 L 209.24,103.83 L 215.56,115.56 L 203.83,109.24 L 200.00,122.00 L 196.17,109.24 L 184.44,115.56 L 190.76,103.83 L 178.00,100.00 L 190.76,96.17 L 184.44,84.44 L 196.17,90.76 Z" fill="none" stroke="#e8c39e" stroke-width="1.2" opacity="0.75" />
    <path d="M 100.00,178.00 L 103.83,190.76 L 115.56,184.44 L 109.24,196.17 L 122.00,200.00 L 109.24,203.83 L 115.56,215.56 L 103.83,209.24 L 100.00,222.00 L 96.17,209.24 L 84.44,215.56 L 90.76,203.83 L 78.00,200.00 L 90.76,196.17 L 84.44,184.44 L 96.17,190.76 Z" fill="none" stroke="#e8c39e" stroke-width="1.2" opacity="0.75" />
    <path d="M 0.00,78.00 L 3.83,90.76 L 15.56,84.44 L 9.24,96.17 L 22.00,100.00 L 9.24,103.83 L 15.56,115.56 L 3.83,109.24 L 0.00,122.00 L -3.83,109.24 L -15.56,115.56 L -9.24,103.83 L -22.00,100.00 L -9.24,96.17 L -15.56,84.44 L -3.83,90.76 Z" fill="none" stroke="#e8c39e" stroke-width="1.2" opacity="0.75" />
    <path d="M 50,39 L 61,50 L 50,61 L 39,50 Z" fill="none" stroke="#e8c39e" stroke-width="1.2" opacity="0.65" />
    <path d="M 150,39 L 161,50 L 150,61 L 139,50 Z" fill="none" stroke="#e8c39e" stroke-width="1.2" opacity="0.65" />
    <path d="M 150,139 L 161,150 L 150,161 L 139,150 Z" fill="none" stroke="#e8c39e" stroke-width="1.2" opacity="0.65" />
    <path d="M 50,139 L 61,150 L 50,161 L 39,150 Z" fill="none" stroke="#e8c39e" stroke-width="1.2" opacity="0.65" />
  </g>
</svg>